<svg width="38" height="37" viewBox="0 0 38 37" fill="none" xmlns="http://www.w3.org/2000/svg">
<path d="M13.3237 36.017C9.18289 35.0375 6.92392 33.4251 4.33112 30.0511C1.73832 26.6772 0.387851 22.5126 0.507295 18.2591C0.626738 14.0056 2.20879 9.92339 4.98685 6.70027C7.7649 3.47715 11.5691 1.31021 15.7584 0.564621C19.9477 -0.180963 24.266 0.540389 27.9855 2.60712C31.705 4.67385 34.5984 7.9596 36.178 11.9107C37.7576 15.8617 37.927 20.2365 36.6574 24.2979C35.3879 28.3592 33.0851 33.4943 27.1987 34.5454L24.2555 30.5511C26.7396 28.9075 28.6703 29.5 31.3602 22.642C32.2489 19.7991 32.1303 16.7367 31.0246 13.971C29.9189 11.2052 27.8935 8.90521 25.2899 7.4585C22.6862 6.01179 19.6634 5.50685 16.7309 6.02876C13.7984 6.55067 11.1354 8.06752 9.19079 10.3237C7.24615 12.5799 6.13871 15.4375 6.0551 18.4149C5.97149 21.3923 6.91682 24.3075 8.73178 26.6693C10.5467 29.0311 10.4251 29.0245 13.3237 29.7102L13.3237 36.017Z" fill="white"/>
<path d="M25.1971 15.8082V18.7719H21.8558V28.3795C21.8558 29.0092 21.9755 29.4434 22.215 29.6822C22.4785 29.9211 22.9456 30.0405 23.6163 30.0405C24.1672 30.0405 25.4955 29.8356 26.3578 29.4448C26.4297 29.4014 26.5202 29.7319 26.5681 29.7102L30.7726 33.0084C29.2636 33.6814 29.5112 34.5675 24.5078 35.2154C19.6516 35.8442 17.1078 32.1923 17.1078 29.5L16.8976 18.7719V12.9422L21.8558 10.3693V15.8082H25.1971Z" fill="white"/>
</svg>
